<svg xmlns="http://www.w3.org/2000/svg" version="1.1" xmlns:xlink="http://www.w3.org/1999/xlink" xmlns:svgjs="http://svgjs.com/svgjs" width="1440" height="800" preserveAspectRatio="none" viewBox="0 0 1440 800"><g mask="url(&quot;#SvgjsMask1009&quot;)" fill="none"><rect width="1440" height="800" x="0" y="0" fill="rgba(14, 42, 71, 1)"></rect><path d="M 0,379 C 57.6,325.6 172.8,133.6 288,112 C 403.2,90.4 460.8,261.8 576,271 C 691.2,280.2 748.8,139.4 864,158 C 979.2,176.6 1036.8,364.6 1152,364 C 1267.2,363.4 1382.4,196.8 1440,155L1440 800L0 800z" fill="rgba(52, 106, 165, 1)"></path><path d="M 0,608 C 96,567.6 288,387.4 480,406 C 672,424.6 768,677.8 960,701 C 1152,724.2 1344,557.8 1440,522L1440 800L0 800z" fill="rgba(98, 148, 201, 1)"></path></g><defs><mask id="SvgjsMask1009"><rect width="1440" height="800" fill="#ffffff"></rect></mask></defs></svg>